<svg xmlns="http://www.w3.org/2000/svg" viewBox="0 0 1200 630">
  <defs>
    <linearGradient id="bg" x1="0%" x2="100%" y1="0%" y2="100%">
      <stop offset="0%" stop-color="#07111d" />
      <stop offset="100%" stop-color="#132f45" />
    </linearGradient>
    <linearGradient id="accent" x1="0%" x2="100%" y1="0%" y2="100%">
      <stop offset="0%" stop-color="#0d99ff" />
      <stop offset="100%" stop-color="#72ffd8" />
    </linearGradient>
  </defs>
  <rect width="1200" height="630" fill="url(#bg)" />
  <circle cx="1040" cy="130" r="150" fill="#0d99ff" opacity="0.18" />
  <circle cx="160" cy="500" r="180" fill="#72ffd8" opacity="0.1" />
  <rect x="80" y="72" width="150" height="150" rx="32" fill="url(#accent)" opacity="0.18" />
  <path
    d="M126 108h40c22 0 36 13 36 31 0 14-7 23-21 28l28 31h-27l-23-26h-14v26h-19v-90zm19 15v34h20c12 0 19-7 19-17 0-11-7-17-20-17h-19z"
    fill="#f2fbff"
  />
  <text x="80" y="315" font-family="Inter, sans-serif" font-size="74" font-weight="800" fill="#f4fbff">Rust CUI Builder</text>
  <text x="80" y="382" font-family="Inter, sans-serif" font-size="34" fill="#b8d9f3">
    Visual project editor for Rust plugin interfaces
  </text>
  <text x="80" y="450" font-family="Inter, sans-serif" font-size="24" fill="#79c4ff">
    Projects • Collaboration • Offline support • RCUI export
  </text>
</svg>
